<svg width="35" height="35" viewBox="0 0 35 35" fill="none" xmlns="http://www.w3.org/2000/svg">
<path d="M4.58203 17.0585H4.38203V17.2585V30.0085V30.2085H4.58203H10.957H11.157V30.0085V17.2585V17.0585H10.957H4.58203ZM10.957 31.9335H4.58203C4.07149 31.9335 3.58186 31.7307 3.22085 31.3697C2.85984 31.0086 2.65703 30.519 2.65703 30.0085V17.2585C2.65703 16.7479 2.85984 16.2583 3.22085 15.8973C3.58186 15.5363 4.07149 15.3335 4.58203 15.3335H10.957C11.4676 15.3335 11.9572 15.5363 12.3182 15.8973C12.6792 16.2583 12.882 16.7479 12.882 17.2585V30.0085C12.882 30.519 12.6792 31.0086 12.3182 31.3697C11.9572 31.7307 11.4676 31.9335 10.957 31.9335Z" fill="#29D4B6" stroke="#2E2F3C" stroke-width="0.4"/>
<path d="M6.70703 6.43348H6.50703V6.63348V12.8085H4.78203V6.63348C4.78203 6.12293 4.98484 5.6333 5.34585 5.2723C5.70686 4.91129 6.19649 4.70848 6.70703 4.70848H30.082C30.5926 4.70848 31.0822 4.91129 31.4432 5.2723C31.8042 5.6333 32.007 6.12293 32.007 6.63348V21.5085C32.007 22.019 31.8042 22.5086 31.4432 22.8697C31.0822 23.2307 30.5926 23.4335 30.082 23.4335H19.457H19.257V23.6335V27.8835V28.0835H19.457H24.5695V29.8085H15.407V28.0835H17.332H17.532V27.8835V23.6335V23.4335H17.332H15.407V21.7085H30.082H30.282V21.5085V6.63348V6.43348H30.082H6.70703Z" fill="#29D4B6" stroke="#2E313C" stroke-width="0.4"/>
</svg>
